<?xml version="1.0" encoding="UTF-8" standalone="no"?><!DOCTYPE svg PUBLIC "-//W3C//DTD SVG 1.1//EN" "http://www.w3.org/Graphics/SVG/1.1/DTD/svg11.dtd"><svg width="100%" height="100%" viewBox="0 0 289 95" version="1.1" xmlns="http://www.w3.org/2000/svg" xmlns:xlink="http://www.w3.org/1999/xlink" xml:space="preserve" xmlns:serif="http://www.serif.com/" style="fill-rule:evenodd;clip-rule:evenodd;stroke-linejoin:round;stroke-miterlimit:2;"><g><path d="M13.989,59.382c3.569,0.143 6.566,0.143 11.42,0.143c20.984,0 33.831,-8.136 33.831,-29.263l0,-2.284c0,-20.413 -10.42,-27.978 -34.402,-27.978c-8.565,0 -15.559,0.428 -20.984,1.142c-2.855,0.428 -3.854,1.427 -3.854,4.711l0,84.791c0,2.427 0.714,2.998 3.14,2.998l7.708,0c2.427,0 3.14,-0.571 3.14,-2.998l0,-31.261Zm2.141,-47.677c2.427,-0.285 5.71,-0.428 8.993,-0.428c14.703,0 20.127,4.568 20.127,16.987l0,1.713c0,14.275 -6.424,18.271 -22.268,18.271c-2.284,0 -5.853,0 -8.993,-0.143l0,-33.688c0,-1.713 0.571,-2.569 2.141,-2.712Z" style="fill:#404040;fill-rule:nonzero;"/><path d="M85.933,26.265c0,-1.998 -0.714,-2.569 -2.855,-2.569l-7.423,0c-1.998,0 -2.855,0.571 -2.855,2.569l0,64.806c0,1.998 0.856,2.569 2.855,2.569l7.423,0c2.141,0 2.855,-0.571 2.855,-2.569l0,-64.806Zm-15.131,-16.624c0,5.853 3.711,8.279 8.279,8.279l0.714,0c4.711,0 8.136,-2.427 8.136,-8.279l0,-0.999c0,-5.853 -3.426,-8.279 -8.136,-8.279l-0.714,0c-4.568,0 -8.279,2.427 -8.279,8.279l0,0.999Z" style="fill:#404040;fill-rule:nonzero;"/><path d="M131.754,49.675c-0.999,1.856 -1.427,2.141 -3.14,2.141l-0.999,0c-1.713,0 -2.284,-0.428 -3.14,-2.141l-11.705,-23.838c-0.999,-1.856 -1.713,-2.141 -3.997,-2.141l-7.708,0c-1.427,0 -1.998,0.571 -1.998,1.57c0,0.856 0.714,2.141 1.856,4.282l12.704,24.267c0.999,1.856 1.57,2.855 1.57,3.854c0,1.142 -0.571,2.141 -1.713,4.425l-12.99,25.266c-0.999,1.998 -2.284,3.997 -2.284,4.996c0,0.856 0.571,1.285 1.998,1.285l7.423,0c3.283,0 3.854,-0.285 4.853,-2.284l11.991,-25.694c0.856,-1.856 1.427,-2.141 3.14,-2.141l0.999,0c1.713,0 2.284,0.285 3.14,2.141l11.991,25.694c0.999,1.998 1.427,2.284 4.853,2.284l7.423,0c1.427,0 1.998,-0.428 1.998,-1.285c0,-0.999 -1.285,-2.998 -2.284,-4.996l-12.99,-25.266c-1.142,-2.284 -1.713,-3.283 -1.713,-4.425c0,-0.999 0.571,-1.998 1.57,-3.854l12.704,-24.267c1.142,-2.141 1.856,-3.426 1.856,-4.282c0,-0.999 -0.571,-1.57 -1.998,-1.57l-7.708,0c-2.284,0 -2.998,0.285 -3.997,2.141l-11.705,23.838Z" style="fill:#404040;fill-rule:nonzero;"/><path d="M218.685,50.96c0,-20.27 -9.278,-28.549 -26.265,-28.549c-20.841,0 -27.978,11.42 -27.978,33.831l0,4.853c0,23.981 6.995,33.831 29.263,33.831c7.708,0 15.702,-1.713 20.698,-3.997c1.142,-0.571 1.713,-1.142 1.713,-2.141c0,-0.571 -0.285,-1.57 -0.714,-2.998l-0.999,-3.426c-0.428,-1.285 -0.999,-1.57 -1.713,-1.57c-0.571,0 -1.427,0.285 -2.284,0.571c-3.997,1.57 -10.135,2.712 -15.131,2.712c-13.989,0 -16.987,-5.139 -17.415,-18.7l36.828,0c2.855,0 3.997,-1.427 3.997,-4.14l0,-10.278Zm-40.968,3.711c0,-14.56 2.569,-21.412 14.417,-21.412c10.991,0 13.846,5.853 13.846,19.413c0,1.57 -0.428,1.998 -1.856,1.998l-26.408,0Z" style="fill:#404040;fill-rule:nonzero;"/><path d="M288.488,56.242c0,-12.419 -1.713,-21.126 -7.137,-26.551c-4.853,-4.853 -12.276,-7.28 -21.697,-7.28c-9.421,0 -16.844,2.427 -21.697,7.28c-5.424,5.424 -7.137,14.132 -7.137,26.551l0,4.853c0,12.419 1.713,21.126 7.137,26.551c4.853,4.853 12.276,7.28 21.697,7.28c9.421,0 16.844,-2.427 21.697,-7.28c5.424,-5.424 7.137,-14.132 7.137,-26.551l0,-4.853Zm-13.418,0.999l0,2.855c0,9.278 -0.714,14.132 -2.284,17.558c-2.141,4.711 -6.424,6.709 -13.133,6.709c-6.709,0 -10.991,-1.998 -13.133,-6.709c-1.57,-3.426 -2.284,-8.279 -2.284,-17.558l0,-2.855c0,-9.278 0.714,-14.132 2.284,-17.558c2.141,-4.711 6.424,-6.709 13.133,-6.709c6.709,0 10.991,1.998 13.133,6.709c1.57,3.426 2.284,8.279 2.284,17.558Z" style="fill:#404040;fill-rule:nonzero;"/></g></svg>