<?xml version="1.0" encoding="UTF-8" standalone="no"?><!DOCTYPE svg PUBLIC "-//W3C//DTD SVG 1.1//EN" "http://www.w3.org/Graphics/SVG/1.1/DTD/svg11.dtd"><svg width="100%" height="100%" viewBox="0 0 159 148" version="1.1" xmlns="http://www.w3.org/2000/svg" xmlns:xlink="http://www.w3.org/1999/xlink" xml:space="preserve" xmlns:serif="http://www.serif.com/" style="fill-rule:evenodd;clip-rule:evenodd;stroke-linejoin:round;stroke-miterlimit:2;"><g><path d="M0.131,66.466c-0.342,-21.034 -1.185,-45.451 15.064,-58.805c16.465,-13.529 40.095,-5.286 61.366,-4.007c24.171,1.456 52.565,-6.058 68.869,11.847c16.731,18.377 14.731,47.795 6.914,71.385c-6.679,20.158 -26.606,30.71 -44.523,42.106c-15.724,10 -32.17,21.468 -50.543,18.357c-17.974,-3.044 -29.835,-18.861 -40.352,-33.749c-10.008,-14.16 -16.513,-29.799 -16.796,-47.135Z" style="fill:url(#_Linear1);"/><path d="M85.374,46.385c4.282,0 7.137,0.999 8.422,2.569c0.856,1.142 1.285,2.427 1.285,4.282c0,1.998 -0.428,4.568 -1.142,7.423c-1.998,7.708 -6.138,10.278 -14.988,10.278l-7.423,0l4.282,-22.411c0.143,-0.999 0.571,-1.57 1.427,-1.713c1.713,-0.285 4.996,-0.428 6.995,-0.428l1.142,0Zm-17.558,44.108l6.852,0c12.704,0 22.125,-1.285 29.691,-5.853c11.277,-6.709 14.988,-23.838 14.988,-33.545c0,-19.128 -11.42,-23.981 -32.118,-23.981l-1.713,0c-9.421,0 -17.129,0.285 -23.696,0.856c-4.711,0.428 -5.995,1.57 -6.709,5.567l-15.131,78.653c-0.571,2.998 -1.142,5.424 -1.142,6.281c0,1.998 1.285,2.284 4.711,2.284l13.275,0c4.425,0 5.139,-0.571 5.995,-4.568l4.996,-25.694Z" style="fill:#fff;fill-rule:nonzero;"/></g><defs><linearGradient id="_Linear1" x1="0" y1="0" x2="1" y2="0" gradientUnits="userSpaceOnUse" gradientTransform="matrix(-186.522232,181.004368,-181.004368,-186.522232,186.522232,-41.050461)"><stop offset="0" style="stop-color:#f5fea7;stop-opacity:1"/><stop offset="1" style="stop-color:#24e3d6;stop-opacity:1"/></linearGradient></defs></svg>